<?xml version="1.0" encoding="UTF-8"?>
<svg width="150px" height="63px" viewBox="0 0 150 63" version="1.1" xmlns="http://www.w3.org/2000/svg" xmlns:xlink="http://www.w3.org/1999/xlink">
    <!-- Generator: Sketch 42 (36781) - http://www.bohemiancoding.com/sketch -->
    <title>logo-vince</title>
    <desc>Created with Sketch.</desc>
    <defs>
        <polygon id="path-1" points="89.1377783 0.745552095 89.1377783 22.7975797 0.984251711 22.7975797 0.984251711 0.745552095"></polygon>
        <polygon id="path-3" points="-59.624929 -20.2232092 1.891595 -20.2232092 1.891595 41.0514509 -59.624929 41.0514509 -59.624929 -20.2232092"></polygon>
    </defs>
    <g id="Page-1" stroke="none" stroke-width="1" fill="none" fill-rule="evenodd">
        <g id="logo-vince" transform="translate(-4.000000, -22.000000)">
            <g transform="translate(64.000000, 35.000000)">
                <path d="M9.44285419,5.80209847 C9.67977736,5.98123737 9.94014922,6.11191061 10.1776814,6.20792169 C10.1776814,6.20792169 10.455716,6.30209231 10.8607389,6.35270519 C13.3329012,6.46988166 13.9626661,4.04138397 14.1301568,3.33709817 C14.1395972,3.29630113 14.1493421,3.25519734 14.1581734,3.21532053 C14.2848572,2.67360941 14.4657472,0.874245078 13.2412381,0.253700576 C12.32613,-0.210097391 11.4295981,0.125481297 11.0251842,0.330386748 C10.9502702,0.373024259 10.8747472,0.410140366 10.8004422,0.458299282 C9.96055263,1.00307785 9.20166762,1.88466208 8.79725378,3.09906429 C8.7354345,3.28433808 8.69036428,3.45826232 8.65991143,3.620837 C8.5527174,4.19291584 8.6178865,4.62603934 8.76801905,4.97419456 C8.91876065,5.32204304 9.1629925,5.59136487 9.44285419,5.80209847" id="Fill-1" fill="#FFFFFF"></path>
                <g id="Group" transform="translate(0.000000, 8.124424)">
                    <mask id="mask-2" fill="white">
                        <use xlink:href="#path-1"></use>
                    </mask>
                    <g id="Clip-4"></g>
                    <path d="M70.502888,9.72534816 L70.4952748,9.73301677 C70.3755951,9.82043901 70.1855693,9.93301431 69.957782,10.0578594 C69.749789,10.1759561 69.5402734,10.2900651 69.3304533,10.3961988 C69.1002298,10.5115348 68.8739651,10.617055 68.6522684,10.7161335 C67.8796796,11.0860676 67.0836421,11.4437319 66.6378124,11.6425024 L66.6378124,11.6425024 L66.6375078,11.6425024 C65.8691824,9.66614643 66.462404,8.32996658 66.9006205,7.69439158 C67.0126869,7.54193948 67.1302349,7.39654249 67.259355,7.26648275 C68.0292031,6.49041869 69.0527233,6.10698783 69.9736175,6.03643655 C70.5439994,5.99318555 71.0793604,6.06680428 71.5111819,6.26618832 C71.9396534,6.46066445 72.2795072,6.82078272 72.3178778,7.28887511 C72.3251865,7.36770849 72.3239684,7.44746211 72.3151371,7.52752248 L72.3151371,7.52813596 C72.239614,8.16187049 71.8093152,8.70143439 71.2593368,9.17198074 C71.0291132,9.3679906 70.7708731,9.55111717 70.502888,9.72534816 M89.1379001,15.4786515 C89.1379001,15.0209884 88.955183,14.6074966 88.6603995,14.3044328 L88.6603995,14.3032059 C88.6594859,14.3019789 88.6582678,14.3010587 88.6570496,14.3001384 C88.5294522,14.1697719 88.377797,14.0654787 88.2139607,13.9826577 C88.1856395,13.9682407 88.158841,13.9495292 88.1299108,13.936646 C88.1122482,13.9289773 88.0933674,13.9240694 88.0754002,13.917321 C86.7604462,13.3774504 84.9384522,14.3838797 84.9384522,14.3838797 C84.7962374,14.454431 84.6543271,14.5249823 84.5044991,14.598601 C84.038875,14.8277393 83.5869547,15.033565 83.1432567,15.2249736 L83.0546389,15.2657707 C82.9654121,15.3047273 82.878926,15.3329478 82.7906127,15.3691437 C77.6139329,17.5169699 73.9215249,17.1568517 71.3826708,16.039074 L71.3781029,16.0406078 C71.3781029,16.0406078 71.3848025,16.0378471 71.3863252,16.0372336 L71.9515301,15.7936783 C74.1015012,14.8151627 81.4461194,10.9336155 78.2318212,4.80178919 L78.1733517,4.69718925 C76.7146602,2.19629982 73.7893595,1.27759948 71.7389692,0.940487069 C71.3388187,0.871469515 70.935623,0.82208362 70.5312092,0.790488917 C70.4840072,0.786501236 70.4398506,0.783433789 70.3953895,0.780059598 C70.2976358,0.773617959 70.1998822,0.765949342 70.1021285,0.761348172 C69.7181181,0.741409767 69.4906353,0.746010938 69.4906353,0.746010938 C66.8388012,0.74417047 64.3367951,1.55152249 62.6393532,2.87451232 L62.3939033,3.05027703 C62.3098534,3.11039898 62.2102726,3.18371096 62.0872431,3.28370973 C61.76627,3.54474946 61.3350577,3.94505128 60.9038454,4.49596473 C57.6380818,8.37352432 59.959198,14.2397097 59.959198,14.2397097 L59.7481597,14.3219173 C58.195978,14.8651621 54.6378671,15.9347809 51.7012988,15.4857066 C51.5673063,15.4639278 51.4339228,15.4476703 51.2999302,15.42037 C51.2521193,15.4105542 51.2055264,15.4001249 51.1589335,15.3900023 C51.0292044,15.3608615 50.9003889,15.3280399 50.7718778,15.2915372 C50.7146265,15.274973 50.6585932,15.2577953 50.603169,15.2400041 C50.4731354,15.1992071 50.3452334,15.1547291 50.218245,15.1053432 C50.2039322,15.0998218 50.1902284,15.0933802 50.1759156,15.087552 C49.4520513,14.799212 48.791529,14.3605671 48.2850982,13.7142561 C48.1925215,13.6004538 48.1109079,13.4881852 48.0381255,13.3786774 C48.0344712,13.3722357 48.0295987,13.3679413 48.0259444,13.3614997 C48.0207674,13.3535243 48.0177221,13.3458557 48.0125451,13.3378803 C47.9044375,13.1703977 47.818256,13.0124242 47.7503461,12.8694812 C47.2877673,11.9624372 47.1397665,11.1415884 47.1498159,10.4532533 C47.1278899,9.42167092 47.4799248,8.67904203 47.7722722,8.25512087 C47.8840341,8.10266876 48.0018867,7.95727178 48.1310067,7.82751878 C48.9008548,7.05114798 49.924375,6.66771712 50.8452692,6.5968591 C51.3178974,6.56158346 51.7628136,6.61066261 52.1486512,6.74072235 L53.0028536,7.02415444 C53.0229525,7.03090283 53.0427468,7.03795796 53.0631502,7.04409285 L53.1216197,7.06341776 C53.1216197,7.06341776 53.1289284,7.06096381 53.1307555,7.06035032 C53.3813825,7.13212857 53.6451042,7.1769133 53.9219206,7.1769133 C55.4442585,7.1769133 56.678208,6.03459608 56.678208,4.62541099 C56.678208,3.75333585 56.2040571,2.98524715 55.4832382,2.52513012 L55.4835427,2.52328965 C55.4808019,2.52175593 55.4774521,2.52022221 55.4744068,2.51868848 C55.4150238,2.48095889 55.3480275,2.45365861 55.2849901,2.42053018 C52.3596894,0.85153111 46.5188329,0.41503342 42.1132192,4.62541099 C38.1062332,8.45511841 39.1681241,13.6811276 39.4507265,14.7869422 L39.450422,14.7869422 C33.898563,13.7857276 33.2648392,5.21190683 33.2648392,5.21190683 L33.2636211,5.21037311 C33.139069,3.54566969 31.7598594,2.23433616 30.0758169,2.23433616 C29.3793602,2.23433616 28.7358915,2.45918001 28.2108844,2.83923668 C28.2105798,2.83954343 28.2105798,2.83954343 28.2102753,2.83954343 C28.190481,2.85396043 28.1703821,2.86807068 28.1508922,2.88279443 C27.4349458,3.40334016 26.7509748,4.22694964 26.1269959,5.17203002 C24.5754232,7.32016307 23.5476395,9.90939497 22.8977757,12.0148905 L22.8977757,12.0151972 C22.8731089,9.65019571 22.8319976,7.20421358 22.7738326,6.04931983 C22.6453216,3.50701986 19.6454114,3.85210764 19.6454114,3.85210764 C19.6454114,3.85210764 17.3142458,3.94597151 14.3085496,7.1563614 C14.3085496,7.1563614 10.9657403,10.3762604 9.57374054,11.5001729 C9.09380363,11.884524 8.71527471,12.1624347 8.41683679,12.291881 C8.34344542,12.3225554 8.26487707,12.3443343 8.17747739,12.3455613 C8.07728752,12.348322 7.96430745,12.3145801 7.88086664,12.2504704 C7.79620772,12.1866675 7.74291523,12.1050734 7.70789445,12.0262401 C7.63907101,11.8667328 7.622931,11.7026244 7.61866761,11.5115225 C7.61409968,11.0768652 7.70484917,10.4949706 7.84066888,9.81185016 C7.97709764,9.13087695 8.1604238,8.35573313 8.34801335,7.57108022 C8.72319245,6.00514859 9.11420704,4.38461641 9.17328557,3.47082399 C9.18089878,3.35364752 9.18394406,3.24321943 9.18242142,3.1386195 C9.16414971,2.19783354 8.82825478,1.76532353 8.50058212,1.51501987 C8.17047324,1.26778365 7.81387037,1.22821359 7.79742583,1.22790684 L7.78219941,1.22698661 L7.76545034,1.22391916 C7.6335895,1.20029982 7.50446942,1.18956375 7.37748104,1.19109748 C6.98189852,1.19692563 6.59819262,1.3196235 6.21326861,1.55397644 C5.82925818,1.78771589 5.44859756,2.13464414 5.08011808,2.57512951 C4.34194101,3.45548676 3.65705643,4.70516461 3.04921755,6.11925762 C3.04921755,6.11925762 -0.546045845,15.57773 1.75131711,20.3175489 C1.95870102,20.7058877 2.5698897,21.6577165 3.77125461,22.0865455 C3.90281092,22.1285696 4.03802157,22.1650722 4.1793228,22.1911455 C7.53400868,22.8095428 13.6608175,18.437204 17.6830298,12.102006 L18.9041891,20.051908 C18.9041891,20.051908 18.9632676,21.4043454 20.4259179,21.9316395 C20.4679429,21.9457497 20.5130131,21.9626207 20.5516882,21.9745837 C20.6381743,22.0015773 20.7264876,22.0270371 20.822414,22.0478957 C20.9378303,22.075196 21.0078719,22.0862388 21.0078719,22.0862388 C22.323435,22.2886903 23.3743628,21.712317 24.0543749,21.1546552 C24.3043928,20.9620195 24.5315711,20.7402431 24.7322554,20.4908597 C24.8510215,20.3509841 24.9158861,20.2592674 24.9158861,20.2592674 C26.2210952,18.3648123 27.5256953,16.4703571 28.8305998,14.5762086 L29.0547328,14.2504458 L29.2106514,14.4335724 C30.2536615,15.6252755 34.4046894,23.6349927 44.906659,21.4206028 C44.9188402,21.423977 44.9307168,21.4273512 44.9422889,21.4310322 C44.9556881,21.4202961 44.970001,21.4104803 44.9928406,21.4043454 C44.9928406,21.4043454 51.3721035,23.2721138 58.4170657,21.1460663 C58.4173702,21.1460663 58.4179793,21.1457596 58.4182838,21.1457596 C60.2576359,20.6187722 61.9763947,20.0258347 63.4369134,19.4617313 C63.8644714,19.8325856 64.3221777,20.1905566 64.8410943,20.5172397 C65.0046261,20.6077294 65.1724213,20.6979124 65.3487432,20.7890155 C66.6694833,21.5301107 68.2767847,22.1288763 70.2440388,22.4745776 C71.3034934,22.6761088 72.4524794,22.7975797 73.6858198,22.7975797 C74.5662117,22.7975797 75.4895421,22.7362308 76.4545929,22.5972755 C81.4086624,21.885321 84.7855789,20.008657 86.8347511,18.4635841 C86.9529082,18.3743213 87.0671064,18.2865924 87.1724732,18.2019308 L87.1743004,18.2007039 L87.3417911,18.0657362 C88.1996478,17.3519413 88.6701444,16.7645252 88.9289936,16.2952059 L88.9216849,16.2906047 C89.0550684,16.0488899 89.1379001,15.7749669 89.1379001,15.4786515" id="Fill-3" fill="#FFFFFF" mask="url(#mask-2)"></path>
                    <mask id="mask-4" fill="white">
                        <use xlink:href="#path-3"></use>
                    </mask>
                    <g id="Clip-7"></g>
                    <path d="M0.241708463,-6.71469469 C-2.34465204,-8.31528846 -5.2309731,-5.55949419 -6.46309539,-4.15061585 C-6.54866789,-4.03865404 -6.64185361,-3.92086408 -6.74265254,-3.79693922 C-6.84558318,-3.66994692 -6.9570406,-3.53651298 -7.0745886,-3.39786439 L-7.07519766,-3.39755764 C-7.15346148,-3.30553424 -7.24542909,-3.20308151 -7.32978348,-3.10645693 L-9.34119418,-5.5794326 C-10.2547797,-6.74935684 -11.2588101,-7.87633681 -12.3666848,-8.95454439 C-13.9855582,-10.5275311 -15.8282602,-11.9673907 -17.8987494,-13.2722826 C-19.968325,-14.5780947 -22.2315808,-15.6661181 -24.6827306,-16.5342056 C-24.9169131,-17.5891006 -25.4355251,-18.3869435 -26.2394803,-18.9265074 C-27.043131,-19.4663781 -27.9899101,-19.8301773 -29.0883444,-20.019132 C-30.1855605,-20.206553 -31.328456,-20.2651412 -32.5203805,-20.1939765 C-33.7095643,-20.1209712 -34.8104348,-20.002261 -35.8214694,-19.8347784 C-38.3919944,-19.4393845 -40.7627487,-18.7811104 -42.935255,-17.8627168 C-45.1056296,-16.943403 -47.055221,-15.8173433 -48.781593,-14.4842309 C-50.7305754,-13.002654 -52.3914738,-11.3784409 -53.7627656,-9.61281849 C-55.134971,-7.84566235 -56.2495453,-5.97390627 -57.1055749,-3.99816374 C-57.9597773,-2.02088749 -58.5852788,0.00178697833 -58.9799477,2.06893942 C-59.372485,4.13885257 -59.5880911,6.20324431 -59.6231119,8.26364837 C-59.6438199,10.2430718 -59.4875967,12.2844577 -59.1513973,14.39026 C-58.8145888,16.4954488 -58.2566926,18.574871 -57.4834947,20.6266862 C-56.706338,22.677888 -55.6785543,24.6892129 -54.3983166,26.6566733 C-53.1168607,28.6247472 -51.5576748,30.4762581 -49.721977,32.2102858 C-47.2976257,34.524061 -44.3902921,36.4553256 -41.0005855,38.0019323 C-37.6096607,39.5494592 -33.9461829,40.5129443 -30.0122838,40.890547 C-26.8494509,41.2086412 -23.9710476,41.0549621 -21.3734195,40.4307367 C-18.7724416,39.8074315 -16.4485847,38.8924121 -14.4024578,37.686292 C-12.35359,36.4820124 -10.5784935,35.0507416 -9.07899515,33.3961608 C-7.5779742,31.7425002 -6.37660929,30.0063253 -5.47490042,28.1879428 C-3.66265136,24.5106875 -2.63425863,20.6254593 -2.38241357,16.5331784 C-2.35196072,16.0264362 -2.32759844,15.5181602 -2.32059428,15.0043629 C-2.30932673,14.2399551 -2.33582071,13.4801485 -2.37997734,12.7209554 C-4.4090507,15.8276656 -6.68326949,18.7592246 -9.20872429,21.5140986 C-11.7561051,24.2922852 -14.4484416,26.7152615 -17.2915196,28.7851747 C-19.086715,30.0937475 -20.8980505,31.0943487 -22.724917,31.7924996 C-23.5797284,32.2253163 -24.4802192,32.6023056 -25.4793772,32.8578239 C-26.9051796,33.224077 -28.5039542,33.2884934 -30.2790508,33.0467786 C-32.269449,32.8378855 -34.0119611,32.3437198 -35.5729741,31.6293114 C-35.9377993,31.462749 -36.3014063,31.2958799 -36.6461325,31.1038578 C-38.4586861,30.0888396 -40.0321849,28.8934555 -41.3657151,27.5177056 C-42.6989409,26.1413422 -43.7949389,24.669888 -44.655841,23.1039563 C-45.5130887,21.5374112 -46.1979733,20.0217857 -46.7059268,18.5537056 C-47.4151737,16.5405403 -47.8856702,14.463572 -48.1198526,12.3240278 C-48.3506852,10.1854038 -48.3485535,8.0743869 -48.1119349,5.98729605 C-47.8756207,3.90173893 -47.3777167,1.86618119 -46.6185271,-0.116923215 C-45.8599466,-2.10156134 -44.7904426,-3.96258135 -43.4094059,-5.70397094 C-41.8261622,-7.77725828 -39.9645795,-9.35914063 -37.8258759,-10.4505382 C-35.6859542,-11.5425493 -33.0322929,-12.3029694 -29.8655011,-12.7339457 C-26.7995082,-11.5815059 -24.2353783,-10.0781502 -22.174634,-8.22449203 C-20.1138897,-6.36960691 -18.4307607,-4.35214711 -17.1240289,-2.17119238 C-16.5877542,-1.27457766 -16.12548,-0.362932454 -15.7076669,0.556688117 L-15.7012718,0.553313925 C-15.7012718,0.553313925 -14.8720407,2.1278344 -14.1828927,3.67781531 C-17.2354863,6.41029698 -20.5112993,9.02100101 -22.9021525,10.3028871 C-23.6957538,10.7261947 -24.3912969,11.0083998 -24.9848229,11.0955153 L-25.188857,11.1246561 L-25.2914831,10.9449037 C-25.2917876,10.9442902 -25.3931956,10.7663783 -25.5823078,10.4461368 C-25.77142,10.1255886 -26.0473228,9.66424462 -26.3935717,9.10106137 C-27.0860695,7.97530837 -28.0605607,6.44373215 -29.186098,4.82350671 C-31.4307775,1.58458956 -34.3085718,-2.01536608 -36.661359,-3.40062509 C-37.3304081,-3.79785946 -37.9470783,-4.0088998 -38.4702582,-4.00767282 C-38.7251486,-4.00736608 -38.9590264,-3.9601274 -39.1804187,-3.86043537 L-39.2011266,-3.85092629 L-39.2236617,-3.8447914 L-39.2239662,-3.8447914 L-39.2337111,-3.8414172 L-39.2809131,-3.82546648 C-39.323547,-3.8098225 -39.3871935,-3.78466944 -39.4642392,-3.74786007 C-39.6186352,-3.6739346 -39.8269326,-3.5530772 -40.0327939,-3.37179109 C-40.1588687,-3.25921579 -40.2831163,-3.1227144 -40.39701,-2.96259368 C-40.4000553,-2.95891274 -40.4031006,-2.95676553 -40.4061458,-2.95308459 C-40.4192406,-2.93682712 -40.4277674,-2.91780895 -40.440253,-2.90093799 C-40.4548704,-2.87915912 -40.4694878,-2.85860723 -40.4831916,-2.83560138 C-41.2731385,-1.71567652 -40.9198854,0.00546791457 -40.5380067,1.14257047 C-40.514558,1.21250826 -40.4901957,1.28305954 -40.4637017,1.35545128 C-40.2864661,1.84808325 -40.125066,2.19010357 -40.0860864,2.26985719 C-39.8375911,2.83641463 -39.5763057,3.48119196 -39.3055799,4.18701149 L-39.3055799,4.18609125 C-39.3055799,4.18609125 -33.6879427,17.9291735 -32.6440191,20.8441682 C-31.6150173,23.7177524 -31.0330633,25.8284626 -27.9073829,26.4048359 C-27.7389786,26.4204799 -27.5599159,26.4318294 -27.3598406,26.4318294 C-25.1334328,26.4336699 -21.0277797,25.3542353 -15.9348451,21.4082717 C-11.203995,17.7448199 -5.61346089,11.6044048 0.142127646,1.58458956 C0.2100375,1.46311867 0.285256038,1.33213869 0.369914959,1.18919566 C0.436606699,1.07201919 0.50329844,0.947787593 0.570294708,0.829690888 C0.650994759,0.685520885 0.718904613,0.547485776 0.789250695,0.408223688 C0.808435991,0.37233456 0.825489586,0.344420794 0.845283938,0.306384452 C3.51112637,-4.78527061 0.241708463,-6.71469469 0.241708463,-6.71469469" id="Fill-6" fill="#FFFFFF" mask="url(#mask-4)"></path>
                </g>
            </g>
        </g>
    </g>
</svg>