<?xml version="1.0" encoding="UTF-8"?>
<svg width="159px" height="109px" viewBox="0 0 159 109" version="1.1" xmlns="http://www.w3.org/2000/svg" xmlns:xlink="http://www.w3.org/1999/xlink">
    <!-- Generator: sketchtool 41.2 (35397) - http://www.bohemiancoding.com/sketch -->
    <title>1942D944-25B6-40B8-AA8C-2245D5CA1A11</title>
    <desc>Created with sketchtool.</desc>
    <defs></defs>
    <g id="Page-1" stroke="none" stroke-width="1" fill="none" fill-rule="evenodd">
        <g id="site-bulle" transform="translate(-881.000000, -1695.000000)" fill="#FEFEFE">
            <g id="logo_vince" transform="translate(881.000000, 1695.000000)">
                <g id="Group-12">
                    <path d="M43.8476,63.8268 C43.6716,64.1698 43.3796,64.7798 42.9696,65.6568 C42.5586,66.5348 42.0896,67.4428 41.5626,68.3818 C41.0346,69.3208 40.5136,70.1998 39.9976,71.0158 C39.4826,71.8348 39.0106,72.4048 38.5846,72.7248 C38.1596,73.0478 37.8336,73.0018 37.6116,72.5898 C37.3896,72.1768 37.3356,71.1878 37.4496,69.6228 C37.6056,66.3918 37.8416,63.1708 38.1586,59.9568 C38.4746,56.7428 38.6386,53.3338 38.6506,49.7288 C38.6486,47.9008 38.5516,45.8448 38.3616,43.5628 C38.1716,41.2838 37.7776,39.0278 37.1766,36.7978 C37.1326,36.6318 37.0766,36.4738 37.0296,36.3108 C37.8996,37.3078 39.0026,38.1998 40.3676,38.9798 C41.9266,39.8418 43.5596,40.3688 45.2796,40.5688 C46.4256,40.7018 47.5686,40.7678 48.7066,40.7688 C49.3106,40.7678 49.9136,40.7498 50.5146,40.7118 C50.9456,40.6848 51.3356,40.6058 51.6996,40.4898 C51.1456,43.5758 50.4346,46.5868 49.5236,49.5038 C48.0016,54.3708 46.1106,59.1448 43.8476,63.8268 M41.6996,29.8378 C42.1026,27.8978 43.2166,26.3408 44.9536,25.2688 C44.9536,25.2688 44.9526,25.2688 44.9526,25.2698 L44.9546,25.2678 C44.9546,25.2678 44.9546,25.2678 44.9536,25.2688 C46.3676,24.3788 47.8966,23.7718 49.5306,23.4518 C50.3876,23.2838 51.2426,23.1508 52.0936,23.0448 C52.1306,23.5058 52.2456,23.9878 52.4566,24.4948 C52.7056,25.2558 52.8656,26.0548 52.9346,26.8898 C53.0026,27.7288 53.0216,28.5798 52.9876,29.4438 C52.9526,30.3098 52.8996,31.1498 52.8296,31.9658 C52.7586,32.7828 52.6806,33.5268 52.5936,34.1998 C52.5026,35.1278 52.3756,36.0398 52.2546,36.9528 C51.0496,37.1128 49.8636,37.2078 48.7056,37.2068 C48.4576,37.2068 48.2106,37.2038 47.9626,37.1968 C46.3006,37.1478 44.7066,36.4348 43.2236,35.1338 L43.2036,35.1158 L43.1866,35.0978 C42.1176,33.9498 41.5536,32.6088 41.5576,31.1548 C41.5576,30.7238 41.6056,30.2838 41.6996,29.8378 M60.6066,31.4858 C60.4896,30.4258 60.3446,29.3678 60.1406,28.3158 C59.8506,26.8318 59.4386,25.4208 58.9026,24.0888 C58.7066,23.6018 58.4776,23.1448 58.2336,22.7018 C58.6186,22.6938 59.0146,22.6878 59.4066,22.6818 C59.5396,22.8338 59.6786,22.9738 59.8046,23.1348 C60.3456,23.8228 60.8196,24.5878 61.1516,25.3938 C61.4836,26.2018 61.6756,27.0458 61.6766,27.9278 C61.6716,29.0158 61.3886,30.1848 60.6066,31.4858 M60.8866,36.9268 C60.8916,36.6058 60.8796,36.2518 60.8766,35.9138 C61.5386,35.2538 62.1146,34.5898 62.5956,33.9218 C64.0456,31.9148 64.6816,29.8478 64.6766,27.9278 C64.6766,26.6038 64.3836,25.3638 63.9256,24.2518 C63.6906,23.6838 63.4036,23.1598 63.0986,22.6558 C64.6616,22.6578 66.2666,22.6758 67.9256,22.7108 C72.8946,22.8158 77.9546,22.9638 83.1076,23.1598 C88.2546,23.3578 93.3286,23.5078 98.3266,23.6108 C99.7446,23.6398 101.1266,23.6538 102.4716,23.6538 C105.8576,23.6538 109.0096,23.5618 111.9286,23.3798 C114.8016,23.2008 118.0396,22.8238 121.6406,22.2458 C125.2156,21.6718 128.5866,20.7088 131.7576,19.3558 C134.9126,18.0088 137.6076,16.1928 139.8586,13.9018 L140.2156,14.2518 L139.8586,13.9018 C142.0676,11.6508 143.3346,8.7208 143.6616,5.0328 L143.6616,5.0318 L143.6626,5.0208 C143.6836,4.8378 143.6936,4.6598 143.6936,4.4888 C143.6906,3.6218 143.4436,2.9008 142.9346,2.2508 C142.2926,1.4388 141.5446,0.9028 140.6616,0.6048 C140.2086,0.4518 139.7586,0.3778 139.3036,0.3778 C138.8736,0.3778 138.4376,0.4448 137.9926,0.5818 C137.1336,0.8508 136.4636,1.4598 135.9356,2.5418 L135.9316,2.5488 C135.0006,4.4048 133.5006,5.8378 131.4916,6.8088 C129.5366,7.7588 127.6656,8.4368 125.8756,8.8388 L125.8776,8.8378 L125.8746,8.8388 L125.8756,8.8388 C121.6446,9.8178 116.9316,10.3608 111.7396,10.4708 C110.0306,10.5068 108.3036,10.5248 106.5576,10.5248 C103.0156,10.5248 99.3966,10.4508 95.7026,10.3008 C90.1936,10.0768 84.7196,9.8158 79.2786,9.5178 C75.6706,9.3188 72.2356,9.2208 68.9716,9.2208 C67.3246,9.2208 65.7216,9.2458 64.1626,9.2958 L64.1586,9.2958 C60.3606,9.3918 56.5586,9.7358 52.7556,10.3248 C48.9996,10.9078 45.5296,12.2688 42.3226,14.4178 C40.2736,15.7838 38.5636,17.5748 37.1816,19.8028 C35.7976,22.0368 34.9286,24.3468 34.5616,26.7448 C34.4546,27.4378 34.4016,28.1228 34.4016,28.7978 C34.4016,29.3598 34.4516,29.9138 34.5256,30.4648 C33.4606,28.7028 32.0836,27.3588 30.3796,26.4518 C28.0916,25.2378 25.8696,24.5648 23.7176,24.4358 C21.5656,24.3068 19.5176,24.6078 17.5746,25.3368 C15.6306,26.0668 13.8106,27.1778 12.1176,28.6658 C10.4206,30.1548 8.9006,31.8768 7.5546,33.8328 C5.3376,37.0278 3.6206,40.7518 2.4026,45.0038 C1.1836,49.2598 0.6736,53.6608 0.8736,58.2118 C1.0016,61.0108 1.5066,63.7968 2.3876,66.5708 C3.2676,69.3458 4.6096,71.7588 6.4086,73.8118 C8.2096,75.8668 10.1856,77.1208 12.3366,77.5748 C14.4876,78.0298 16.5056,77.6198 18.3926,76.3448 C19.7966,75.4338 21.0506,74.2118 22.1536,72.6758 C23.2556,71.1388 24.1786,69.4298 24.9196,67.5478 C25.6606,65.6658 26.2386,63.6658 26.6506,61.5478 C27.0596,59.4308 27.2976,57.3298 27.3616,55.2458 C27.3996,54.2318 27.3916,53.0828 27.3356,51.7998 C27.2806,50.5168 27.1306,49.2138 26.8866,47.8898 C26.6426,46.5708 26.2946,45.3198 25.8446,44.1418 C25.3936,42.9658 24.7926,41.9768 24.0416,41.1738 C23.2906,40.3728 22.5796,40.0038 21.9056,40.0668 C21.2316,40.1298 20.7036,40.4488 20.3246,41.0238 C19.9436,41.5988 19.7486,42.3288 19.7436,43.2168 C19.7366,44.1018 20.0256,44.9708 20.6106,45.8158 C21.5356,47.1038 22.0816,48.5948 22.2486,50.2898 C22.4156,51.9868 22.4426,53.6188 22.3276,55.1818 C22.1266,58.2478 21.4416,61.0008 20.2706,63.4408 C19.9466,64.0598 19.5306,64.7918 19.0226,65.6378 C18.5146,66.4818 17.9456,67.2248 17.3146,67.8668 C16.6856,68.5098 15.9956,68.9738 15.2496,69.2638 C14.5026,69.5548 13.7376,69.4798 12.9496,69.0408 C11.8966,68.4398 11.1076,67.4558 10.5836,66.0918 C10.0606,64.7268 9.7166,63.2408 9.5516,61.6318 C9.3866,60.0248 9.3466,58.4268 9.4316,56.8378 C9.5176,55.2518 9.6506,53.9618 9.8286,52.9688 C10.1176,51.0608 10.5696,49.1388 11.1856,47.2018 C11.8016,45.2648 12.5406,43.4138 13.4036,41.6458 C14.2646,39.8798 15.2676,38.2658 16.4136,36.8068 C17.5596,35.3478 18.8266,34.1358 20.2166,33.1708 C20.7816,32.7828 21.4006,32.3948 22.0766,32.0058 C22.7516,31.6178 23.4476,31.3428 24.1616,31.1788 C24.8766,31.0178 25.5866,31.0038 26.2906,31.1388 C26.9956,31.2728 27.6316,31.6488 28.1986,32.2628 C28.8216,32.9228 29.3006,33.7078 29.6346,34.6208 C29.9706,35.5348 30.2096,36.5038 30.3506,37.5288 C30.4936,38.5538 30.5506,39.5988 30.5276,40.6688 C30.5026,41.7378 30.4846,42.7468 30.4726,43.6938 C30.4586,45.4688 30.3686,47.2058 30.2016,48.9028 C30.0346,50.6018 29.8736,52.3268 29.7226,54.0788 C29.5906,55.4138 29.4106,57.0268 29.1846,58.9178 C28.9586,60.8088 28.7916,62.8018 28.6876,64.8948 C28.5826,66.9908 28.5606,69.1068 28.6226,71.2438 C28.6856,73.3828 28.9606,75.3588 29.4506,77.1758 C29.9386,78.9918 30.6846,80.5628 31.6876,81.8878 C32.6896,83.2118 34.0376,84.1188 35.7306,84.6078 C37.0726,84.9538 38.3596,84.9318 39.5916,84.5418 C40.8246,84.1498 41.9676,83.5178 43.0256,82.6438 C44.0836,81.7698 45.0596,80.7548 45.9516,79.5978 C46.8446,78.4428 47.6576,77.3238 48.3916,76.2408 C50.0086,73.7998 51.5506,71.0378 53.0176,67.9558 C54.4846,64.8758 55.7956,61.6308 56.9516,58.2198 C58.1066,54.8088 59.0356,51.2988 59.7346,47.6858 C60.4346,44.0738 60.8176,40.4878 60.8866,36.9268" id="Fill-4"></path>
                    <path d="M70.3017,24.936 C69.3567,25.544 68.7607,26.472 68.5157,27.717 C68.2727,29.007 68.3077,30.09 68.6237,30.967 C68.9367,31.845 69.4057,32.531 70.0277,33.025 C70.6487,33.52 71.3637,33.808 72.1737,33.889 C72.9807,33.972 73.7367,33.841 74.4377,33.5 C75.1387,33.159 75.7397,32.612 76.2387,31.858 C76.7377,31.107 76.9937,30.12 77.0107,28.9 C77.0707,27.371 76.7047,26.217 75.9137,25.437 C75.1227,24.657 74.2267,24.227 73.2227,24.146 C72.2187,24.064 71.2457,24.329 70.3017,24.936" id="Fill-6"></path>
                    <path d="M108.5888,67.406 C107.6548,67.425 106.9418,67.757 106.4508,68.4 C105.9588,69.044 105.5668,69.795 105.2758,70.656 C104.9838,71.515 104.7258,72.414 104.5028,73.354 C104.2778,74.293 103.9678,75.067 103.5698,75.679 C103.1038,76.384 102.5628,76.935 101.9458,77.332 C101.3278,77.729 100.6738,77.967 99.9808,78.046 C99.2878,78.125 98.5948,78.03 97.9018,77.762 C97.2078,77.492 96.5738,77.065 96.0008,76.478 C95.1618,75.616 94.6028,74.56 94.3238,73.31 C94.0438,72.058 93.9468,70.699 94.0328,69.233 C94.1188,67.765 94.3528,66.238 94.7378,64.65 C95.1208,63.063 95.5768,61.51 96.1058,59.992 C96.6338,58.475 97.1918,57.052 97.7808,55.723 C98.3688,54.394 98.9178,53.223 99.4258,52.207 C100.0378,50.746 100.6518,49.295 101.2678,47.854 C101.8808,46.414 102.4108,44.907 102.8558,43.334 C103.1368,42.388 103.3538,41.396 103.5088,40.356 C103.6618,39.317 103.7008,38.289 103.6248,37.276 C103.5478,36.263 103.3118,35.301 102.9148,34.388 C102.5178,33.477 101.8938,32.701 101.0408,32.058 C100.0568,31.3 99.0728,30.88 98.0898,30.797 C97.1058,30.714 96.1568,30.855 95.2438,31.219 C94.3308,31.585 93.4568,32.131 92.6238,32.857 C91.7908,33.583 91.0498,34.353 90.4028,35.166 C89.8268,35.927 89.2728,36.709 88.7418,37.509 C88.2088,38.31 87.6988,39.128 87.2098,39.967 C87.2568,39.701 87.2988,39.392 87.3378,39.04 C87.4268,38.115 87.3158,37.312 87.0038,36.63 C86.6928,35.948 86.2598,35.411 85.7088,35.017 C85.1558,34.623 84.5538,34.377 83.8988,34.278 C83.2448,34.179 82.6178,34.24 82.0198,34.46 C81.4208,34.681 80.8998,35.067 80.4568,35.617 C80.0118,36.168 79.7458,36.905 79.6568,37.829 C79.3518,39.256 78.9448,40.641 78.4358,41.982 C77.9248,43.323 77.3738,44.637 76.7798,45.921 C76.1868,47.208 75.5908,48.472 74.9928,49.714 C74.3938,50.957 73.8748,52.214 73.4338,53.481 C73.1348,54.371 72.7738,55.506 72.3568,56.867 C71.6318,57.889 70.9068,58.911 70.1488,59.925 C69.1348,61.28 68.2048,62.354 67.3598,63.147 C66.4468,64.034 65.7928,64.272 65.3948,63.86 C64.9968,63.449 64.9378,62.598 65.2198,61.304 C65.6288,59.43 66.2498,57.62 67.0828,55.871 C67.9168,54.123 68.7688,52.286 69.6398,50.359 C70.3678,48.884 71.0998,47.355 71.8358,45.77 C72.5688,44.185 73.0358,42.556 73.2348,40.88 C73.3848,39.471 73.1138,38.372 72.4188,37.58 C71.7248,36.79 70.9118,36.328 69.9808,36.195 C69.0488,36.063 68.1388,36.286 67.2508,36.865 C66.3618,37.447 65.7998,38.424 65.5678,39.798 C65.4738,40.331 65.3048,40.904 65.0638,41.52 C64.8218,42.134 64.5428,42.765 64.2268,43.409 C63.9108,44.055 63.5928,44.689 63.2748,45.313 C62.9558,45.936 62.6718,46.523 62.4238,47.073 C61.6728,48.683 60.9388,50.288 60.2258,51.892 C59.5138,53.496 58.9028,55.153 58.3968,56.863 C58.0358,58.123 57.7608,59.481 57.5768,60.937 C57.3918,62.394 57.4058,63.795 57.6188,65.141 C57.8298,66.487 58.3008,67.695 59.0268,68.764 C59.7528,69.834 60.8598,70.567 62.3468,70.962 C63.6808,71.375 64.8828,71.411 65.9548,71.072 C67.0278,70.732 68.0148,70.162 68.9178,69.363 C69.8208,68.564 70.6268,67.613 71.3398,66.509 C71.3928,66.427 71.4408,66.345 71.4928,66.263 C71.7988,67.473 72.4628,68.415 73.5198,69.064 C73.9828,69.36 74.4818,69.553 75.0188,69.644 C75.5548,69.735 76.0708,69.719 76.5628,69.597 C77.0548,69.476 77.4958,69.241 77.8858,68.892 C78.2748,68.544 78.5528,68.077 78.7198,67.492 C78.8578,66.998 78.9188,66.513 78.9038,66.035 C78.8878,65.559 78.9448,65.031 79.0738,64.45 C79.4578,62.014 80.1278,59.687 81.0818,57.468 C82.0368,55.249 83.1398,53.134 84.3918,51.12 C86.1648,48.221 88.1458,45.602 90.3348,43.264 C90.4068,43.212 90.6168,43.004 90.9648,42.637 C91.3128,42.271 91.7238,41.866 92.1998,41.42 C92.6748,40.974 93.1508,40.539 93.6298,40.114 C94.1068,39.69 94.5208,39.392 94.8718,39.223 C95.2218,39.052 95.4468,39.059 95.5468,39.243 C95.6458,39.427 95.5418,39.886 95.2358,40.616 C94.3458,42.719 93.4108,44.772 92.4318,46.776 C91.4518,48.78 90.5868,50.934 89.8368,53.237 C89.2868,54.91 88.7908,56.87 88.3458,59.118 C87.9008,61.365 87.6698,63.686 87.6498,66.079 C87.6318,68.474 87.9188,70.822 88.5138,73.126 C89.1078,75.428 90.1888,77.468 91.7568,79.246 C92.9238,80.591 94.2358,81.671 95.6938,82.483 C97.1508,83.295 98.6878,83.783 100.3048,83.946 C102.5898,84.163 104.7458,83.667 106.7708,82.457 C108.7958,81.246 110.2978,79.477 111.2798,77.146 C111.5528,76.462 111.7818,75.566 111.9668,74.458 C112.1518,73.348 112.1748,72.27 112.0358,71.22 C111.8948,70.17 111.5588,69.273 111.0268,68.53 C110.4928,67.786 109.6798,67.412 108.5888,67.406 Z" id="Fill-8"></path>
                    <path d="M139.9198,40.0928 C140.4998,39.0268 141.1448,38.0188 141.8548,37.0668 C142.2628,36.5408 142.7338,35.9768 143.2688,35.3718 C143.8038,34.7668 144.3848,34.3198 145.0158,34.0298 C145.4578,33.8058 145.8608,33.7488 146.2248,33.8588 C146.5868,33.9708 146.7138,34.4018 146.6058,35.1538 C146.5638,35.8108 146.3888,36.5048 146.0838,37.2358 C145.7768,37.9668 145.5088,38.5198 145.2798,38.8938 C144.3678,40.4768 143.1998,41.6748 141.7728,42.4908 C140.7438,43.0438 139.6078,43.3258 138.3608,43.3378 C138.8208,42.2408 139.3398,41.1608 139.9198,40.0928 M158.7048,41.5028 C158.5898,41.0148 158.3938,40.6678 158.1178,40.4598 C157.8388,40.2538 157.5118,40.2028 157.1348,40.3118 C156.7568,40.4198 156.4058,40.7538 156.0808,41.3128 C155.6198,42.0618 154.9838,42.9718 154.1708,44.0428 C153.3578,45.1138 152.4298,46.2098 151.3888,47.3298 C150.3468,48.4488 149.2328,49.5228 148.0438,50.5498 C146.8548,51.5778 145.6558,52.4208 144.4448,53.0808 C143.2338,53.7408 142.0428,54.1498 140.8718,54.3048 C139.7008,54.4618 138.6098,54.2048 137.5968,53.5368 C137.0038,53.1278 136.6678,52.4918 136.5898,51.6308 C136.5108,50.7698 136.5688,49.8278 136.7638,48.8048 C138.7998,49.2238 140.7808,49.2488 142.7068,48.8758 C144.6328,48.5038 146.5038,47.5618 148.3188,46.0488 C149.4228,45.1398 150.4408,43.9908 151.3748,42.6008 C152.3068,41.2108 153.0048,39.7288 153.4678,38.1538 C153.9318,36.5778 154.0988,34.9728 153.9698,33.3328 C153.8418,31.6948 153.2848,30.1488 152.2998,28.6958 C151.2658,27.1618 149.9478,26.1048 148.3418,25.5268 C146.7348,24.9508 145.1378,24.8608 143.5458,25.2598 C142.1808,25.5898 140.9098,26.1588 139.7358,26.9678 C138.5608,27.7768 137.4708,28.7268 136.4658,29.8198 C135.4598,30.9138 134.5538,32.1058 133.7458,33.3928 C132.9378,34.6828 132.2178,35.9718 131.5858,37.2608 C130.9588,38.5948 130.3958,40.0728 129.8998,41.6948 C129.6478,42.5178 129.4338,43.3498 129.2538,44.1918 C128.8488,44.8838 128.3428,45.6658 127.7358,46.5408 C126.9318,47.6998 126.0208,48.8588 125.0038,50.0188 C123.9868,51.1788 122.8948,52.2818 121.7278,53.3288 C120.5608,54.3748 119.4128,55.2468 118.2848,55.9408 C117.1548,56.6348 116.0758,57.0738 115.0438,57.2568 C114.0118,57.4398 113.1108,57.2278 112.3398,56.6198 C111.6988,56.1278 111.3308,55.3868 111.2378,54.3968 C111.1438,53.4078 111.1908,52.3698 111.3788,51.2818 C111.5658,50.1948 111.8368,49.1528 112.1908,48.1548 C112.5448,47.1588 112.8268,46.3868 113.0368,45.8408 C113.4968,44.7438 114.0188,43.6838 114.6038,42.6598 C115.1878,41.6368 115.8158,40.6518 116.4868,39.7038 C117.0238,38.9478 117.5658,38.3198 118.1138,37.8228 C118.6618,37.3258 119.1388,36.9868 119.5478,36.8108 C119.9568,36.6328 120.2898,36.6498 120.5478,36.8588 C120.8058,37.0688 120.9088,37.4598 120.8568,38.0308 C120.7868,38.7788 120.6088,39.5268 120.3238,40.2768 C120.0388,41.0268 119.7818,41.5898 119.5528,41.9628 C119.1968,42.6138 119.0878,43.2788 119.2248,43.9588 C119.3608,44.6388 119.6388,45.1948 120.0578,45.6248 C120.4778,46.0558 120.9768,46.3358 121.5578,46.4648 C122.1368,46.5948 122.7148,46.4528 123.2918,46.0388 C124.1568,45.4178 124.9108,44.6038 125.5568,43.5938 C126.2008,42.5858 126.7008,41.5058 127.0568,40.3558 C127.4128,39.2068 127.6088,38.0198 127.6448,36.7978 C127.6808,35.5768 127.5168,34.3988 127.1528,33.2658 C126.6738,31.7988 125.9588,30.6618 125.0098,29.8568 C124.0598,29.0528 123.0148,28.5198 121.8748,28.2588 C120.7328,27.9968 119.5418,27.9818 118.3018,28.2098 C117.0608,28.4388 115.9308,28.8718 114.9128,29.5098 C113.0548,30.6368 111.3368,32.1598 109.7638,34.0788 C108.1898,35.9988 106.8548,38.1298 105.7578,40.4738 C104.6618,42.8178 103.8688,45.2678 103.3828,47.8248 C102.8958,50.3818 102.8058,52.8378 103.1138,55.1948 C103.3928,57.2948 104.0768,59.1848 105.1648,60.8648 C106.2538,62.5458 107.6998,63.7828 109.5068,64.5768 C111.3888,65.3628 113.2718,65.5388 115.1518,65.1068 C117.0318,64.6748 118.7858,63.9078 120.4138,62.8088 C122.3698,61.4988 124.1218,59.8728 125.6748,57.9338 C126.8798,56.4278 127.9468,54.8228 128.8838,53.1238 C129.0718,54.2458 129.3678,55.3038 129.7838,56.2898 C130.3728,57.6798 131.2228,58.8978 132.3358,59.9458 C133.4508,60.9928 134.8708,61.7438 136.5988,62.1988 C138.0478,62.5978 139.4618,62.6878 140.8388,62.4638 C142.2168,62.2418 143.5518,61.8178 144.8458,61.1918 C146.1378,60.5648 147.3638,59.7838 148.5238,58.8458 C149.6838,57.9088 150.7488,56.9068 151.7178,55.8388 C154.7508,52.3608 157.0528,48.1178 158.6248,43.1098 C158.7918,42.5258 158.8178,41.9898 158.7048,41.5028" id="Fill-10"></path>
                </g>
                <path d="M2.57389465,98.3221691 L2.57389465,106 L1.22477925,106 L1.22477925,98.3221691 L2.57389465,98.3221691 Z M2.86190805,95.9119517 C2.86190805,96.0433269 2.83538077,96.1658577 2.7823254,96.2795478 C2.72927003,96.3932378 2.65853061,96.4942941 2.570105,96.5827198 C2.48167939,96.6711454 2.37809666,96.7406216 2.2593537,96.7911505 C2.14061074,96.8416794 2.01555354,96.8669435 1.88417835,96.8669435 C1.75280316,96.8669435 1.63027237,96.8416794 1.5165823,96.7911505 C1.40289223,96.7406216 1.30309911,96.6711454 1.21719995,96.5827198 C1.13130079,96.4942941 1.06308777,96.3932378 1.01255885,96.2795478 C0.962029931,96.1658577 0.93676585,96.0433269 0.93676585,95.9119517 C0.93676585,95.7805765 0.962029931,95.6555193 1.01255885,95.5367764 C1.06308777,95.4180334 1.13130079,95.3144507 1.21719995,95.2260251 C1.30309911,95.1375994 1.40289223,95.0681232 1.5165823,95.0175943 C1.63027237,94.9670654 1.75280316,94.9418013 1.88417835,94.9418013 C2.01555354,94.9418013 2.14061074,94.9670654 2.2593537,95.0175943 C2.37809666,95.0681232 2.48167939,95.1375994 2.570105,95.2260251 C2.65853061,95.3144507 2.72927003,95.4180334 2.7823254,95.5367764 C2.83538077,95.6555193 2.86190805,95.7805765 2.86190805,95.9119517 Z M9.25883725,99.5879122 C9.19820255,99.6990758 9.10472545,99.7546568 8.97840315,99.7546568 C8.90260977,99.7546568 8.8167119,99.7268663 8.72070695,99.6712845 C8.624702,99.6157027 8.50722403,99.5538057 8.3682695,99.4855917 C8.22931497,99.4173776 8.06383524,99.3542174 7.87182535,99.2961092 C7.67981546,99.2380009 7.45243873,99.2089472 7.18968835,99.2089472 C6.96230821,99.2089472 6.75766916,99.2380009 6.57576505,99.2961092 C6.39386094,99.3542174 6.23848684,99.4337993 6.1096381,99.5348571 C5.98078936,99.6359149 5.88225944,99.7533929 5.8140454,99.8872946 C5.74583136,100.021196 5.71172485,100.166465 5.71172485,100.323104 C5.71172485,100.520167 5.76856903,100.684384 5.8822591,100.815759 C5.99594917,100.947134 6.14627045,101.060822 6.33322745,101.156827 C6.52018445,101.252832 6.73240273,101.337467 6.96988865,101.410734 C7.20737457,101.484001 7.45117295,101.562319 7.7012911,101.645692 C7.95140925,101.729065 8.19520763,101.821279 8.43269355,101.922337 C8.67017947,102.023394 8.88239775,102.149715 9.06935475,102.301302 C9.25631175,102.452888 9.40663303,102.638579 9.5203231,102.85838 C9.63401317,103.078181 9.69085735,103.342191 9.69085735,103.650417 C9.69085735,104.004119 9.62769715,104.331289 9.50137485,104.631936 C9.37505255,104.932583 9.18809835,105.192803 8.94050665,105.412604 C8.69291495,105.632405 8.38974598,105.805464 8.03099065,105.931786 C7.67223532,106.058109 7.2579044,106.121269 6.78798545,106.121269 C6.25237891,106.121269 5.76730856,106.034108 5.33275985,105.859783 C4.89821114,105.685458 4.52935557,105.461871 4.22618205,105.189015 L4.54451265,104.673623 C4.58493579,104.607935 4.63293754,104.557407 4.68851935,104.522037 C4.74410116,104.486666 4.81484059,104.468981 4.90073975,104.468981 C4.9916918,104.468981 5.08769531,104.504351 5.18875315,104.575092 C5.28981099,104.645832 5.41234178,104.724151 5.5563492,104.81005 C5.70035662,104.895949 5.87594198,104.974268 6.08311055,105.045008 C6.29027912,105.115749 6.54797274,105.151118 6.85619915,105.151118 C7.11894953,105.151118 7.34885266,105.117012 7.54591545,105.048798 C7.74297824,104.980584 7.90719476,104.88837 8.03856995,104.772153 C8.16994514,104.655937 8.26721185,104.522037 8.330373,104.370451 C8.39353415,104.218864 8.42511425,104.057174 8.42511425,103.885375 C8.42511425,103.673154 8.36827007,103.497568 8.25458,103.358614 C8.14088993,103.219659 7.99056865,103.100918 7.80361165,103.002387 C7.61665465,102.903855 7.40317317,102.817958 7.1631608,102.744691 C6.92314843,102.671424 6.67808685,102.594368 6.4279687,102.513522 C6.17785055,102.432676 5.93278897,102.340462 5.6927766,102.236878 C5.45276423,102.133293 5.23928275,102.003183 5.05232575,101.846544 C4.86536875,101.689904 4.71504747,101.496634 4.6013574,101.266727 C4.48766733,101.036821 4.43082315,100.757652 4.43082315,100.429215 C4.43082315,100.136147 4.49145694,99.8544523 4.61272635,99.5841226 C4.73399576,99.3137928 4.91084432,99.0763105 5.14327735,98.8716684 C5.37571038,98.6670262 5.66119449,98.5040729 5.99973825,98.3828035 C6.33828201,98.2615341 6.72482244,98.2009003 7.15937115,98.2009003 C7.66466034,98.2009003 8.11815059,98.2804822 8.5198555,98.4396483 C8.92156041,98.5988143 9.26894152,98.8173486 9.56200925,99.0952577 L9.25883725,99.5879122 Z M17.588488,106.121269 C16.9821409,106.121269 16.5160186,105.951999 16.1901071,105.613456 C15.8641956,105.274912 15.7012423,104.787315 15.7012423,104.150651 L15.7012423,99.4514848 L14.7765677,99.4514848 C14.6957214,99.4514848 14.6275084,99.4274839 14.5719266,99.3794815 C14.5163447,99.331479 14.4885543,99.2569499 14.4885543,99.1558921 L14.4885543,98.6177618 L15.7467181,98.4585965 L16.0574694,96.0862756 C16.072628,96.0104822 16.1067345,95.9485852 16.1597899,95.9005828 C16.2128453,95.8525803 16.2823215,95.8285794 16.3682207,95.8285794 L17.0503577,95.8285794 L17.0503577,98.4737551 L19.2710926,98.4737551 L19.2710926,99.4514848 L17.0503577,99.4514848 L17.0503577,104.059699 C17.0503577,104.383084 17.1286763,104.623093 17.285316,104.779733 C17.4419556,104.936372 17.6440682,105.014691 17.89166,105.014691 C18.0331409,105.014691 18.1556717,104.995743 18.259256,104.957846 C18.3628403,104.91995 18.4525278,104.878264 18.5283212,104.832788 C18.6041145,104.787312 18.6685379,104.745626 18.7215933,104.707729 C18.7746487,104.669833 18.8213872,104.650885 18.8618104,104.650885 C18.9325508,104.650885 18.995711,104.693834 19.0512929,104.779733 L19.4454165,105.423973 C19.2129834,105.641248 18.9325521,105.81178 18.6041142,105.935576 C18.2756762,106.059372 17.9371375,106.121269 17.588488,106.121269 Z M20.6656838,106 L20.6656838,94.8356911 L22.0223785,94.8356911 L22.0223785,99.3529539 C22.3508164,99.0043044 22.7146192,98.7251363 23.1137977,98.5154413 C23.5129761,98.3057462 23.9727824,98.2009003 24.4932303,98.2009003 C24.9126203,98.2009003 25.2827391,98.2703765 25.6035977,98.4093311 C25.9244563,98.5482856 26.1922556,98.7453454 26.4070035,99.0005165 C26.6217514,99.2556875 26.7847047,99.5626461 26.8958684,99.9214014 C27.007032,100.280157 27.062613,100.676803 27.062613,101.111352 L27.062613,106 L25.7059183,106 L25.7059183,101.111352 C25.7059183,100.530269 25.5732818,100.079305 25.308005,99.7584465 C25.0427282,99.4375878 24.6397661,99.2771609 24.0991067,99.2771609 C23.6948753,99.2771609 23.3197037,99.3731644 22.9735806,99.5651743 C22.6274575,99.7571842 22.3103933,100.017404 22.0223785,100.345842 L22.0223785,106 L20.6656838,106 Z M32.2695921,98.2009003 C32.7294052,98.2009003 33.155105,98.2779557 33.5467041,98.432069 C33.9383032,98.5861822 34.2768419,98.8085061 34.5623303,99.0990474 C34.8478187,99.3895886 35.0714058,99.7483386 35.2330984,100.175308 C35.3947909,100.602277 35.475636,101.088611 35.475636,101.634323 C35.475636,101.846545 35.4528983,101.988024 35.4074223,102.058764 C35.3619462,102.129504 35.2760483,102.164874 35.1497261,102.164874 L30.01854,102.164874 C30.0286457,102.649952 30.0943323,103.071862 30.2156018,103.430617 C30.3368712,103.789373 30.5036141,104.088752 30.7158356,104.328764 C30.928057,104.568777 31.1806978,104.748152 31.4737656,104.866895 C31.7668333,104.985638 32.0952663,105.045008 32.4590746,105.045008 C32.7976183,105.045008 33.0894184,105.005849 33.3344837,104.927529 C33.579549,104.849209 33.790504,104.764575 33.9673553,104.673623 C34.1442065,104.58267 34.2920013,104.498036 34.4107443,104.419716 C34.5294873,104.341396 34.6318068,104.302237 34.717706,104.302237 C34.8288696,104.302237 34.9147674,104.345186 34.9754022,104.431085 L35.3543672,104.923739 C35.1876217,105.125855 34.9880355,105.30144 34.7556025,105.450501 C34.5231694,105.599561 34.2743182,105.722092 34.0090414,105.818097 C33.7437646,105.914102 33.4696493,105.986104 33.1866874,106.034107 C32.9037254,106.082109 32.6232941,106.10611 32.3453851,106.10611 C31.8148314,106.10611 31.3259714,106.016423 30.8787905,105.837045 C30.4316096,105.657667 30.0450691,105.394921 29.7191576,105.048798 C29.3932461,104.702675 29.1393421,104.274449 28.957438,103.764107 C28.7755338,103.253764 28.6845832,102.667638 28.6845832,102.005709 C28.6845832,101.470102 28.7666914,100.969874 28.9309104,100.505008 C29.0951294,100.040141 29.3313485,99.6371794 29.639575,99.2961092 C29.9478014,98.9550389 30.3242362,98.6872397 30.7688907,98.4927034 C31.2135451,98.298167 31.7137739,98.2009003 32.2695921,98.2009003 Z M32.2999093,99.1937886 C31.6480862,99.1937886 31.1352254,99.382006 30.7613114,99.7584465 C30.3873973,100.134887 30.1549678,100.65659 30.0640158,101.323572 L34.262948,101.323572 C34.262948,101.010293 34.2187358,100.723545 34.1303102,100.463321 C34.0418846,100.203097 33.9130378,99.9782471 33.7437659,99.7887637 C33.574494,99.5992802 33.3685918,99.4527485 33.126053,99.3491643 C32.8835141,99.24558 32.6081357,99.1937886 32.2999093,99.1937886 Z M42.0847856,95.1388631 C42.1504731,95.1388631 42.2060541,95.1426527 42.2515302,95.1502321 C42.2970062,95.1578114 42.3374287,95.1704434 42.372799,95.1881286 C42.4081692,95.2058137 42.4435389,95.2310778 42.4789092,95.2639216 C42.5142794,95.2967653 42.5521755,95.3384511 42.5925987,95.38898 L48.8758384,103.567045 C48.8657326,103.43567 48.8568901,103.308086 48.8493108,103.18429 C48.8417315,103.060494 48.8379419,102.943016 48.8379419,102.831853 L48.8379419,95.1388631 L50.1264229,95.1388631 L50.1264229,106 L49.3912308,106 C49.2750142,106 49.1777475,105.979789 49.0994277,105.939366 C49.0211079,105.898942 48.9440524,105.830729 48.8682591,105.734725 L42.5850194,97.5566598 C42.5951251,97.6829821 42.6027044,97.8067761 42.6077573,97.9280455 C42.6128101,98.0493149 42.6153366,98.1604769 42.6153366,98.2615347 L42.6153366,106 L41.3268556,106 L41.3268556,95.1388631 L42.0847856,95.1388631 Z M55.2651883,98.2009003 C55.7250014,98.2009003 56.1507012,98.2779557 56.5423003,98.432069 C56.9338994,98.5861822 57.2724381,98.8085061 57.5579265,99.0990474 C57.8434149,99.3895886 58.067002,99.7483386 58.2286946,100.175308 C58.3903871,100.602277 58.4712322,101.088611 58.4712322,101.634323 C58.4712322,101.846545 58.4484945,101.988024 58.4030185,102.058764 C58.3575424,102.129504 58.2716445,102.164874 58.1453223,102.164874 L53.0141362,102.164874 C53.0242419,102.649952 53.0899285,103.071862 53.211198,103.430617 C53.3324674,103.789373 53.4992103,104.088752 53.7114318,104.328764 C53.9236532,104.568777 54.176294,104.748152 54.4693618,104.866895 C54.7624295,104.985638 55.0908625,105.045008 55.4546708,105.045008 C55.7932145,105.045008 56.0850146,105.005849 56.3300799,104.927529 C56.5751452,104.849209 56.7861002,104.764575 56.9629515,104.673623 C57.1398027,104.58267 57.2875975,104.498036 57.4063405,104.419716 C57.5250835,104.341396 57.627403,104.302237 57.7133022,104.302237 C57.8244658,104.302237 57.9103636,104.345186 57.9709984,104.431085 L58.3499634,104.923739 C58.1832179,105.125855 57.9836317,105.30144 57.7511987,105.450501 C57.5187656,105.599561 57.2699144,105.722092 57.0046376,105.818097 C56.7393608,105.914102 56.4652455,105.986104 56.1822836,106.034107 C55.8993216,106.082109 55.6188903,106.10611 55.3409813,106.10611 C54.8104276,106.10611 54.3215676,106.016423 53.8743867,105.837045 C53.4272058,105.657667 53.0406653,105.394921 52.7147538,105.048798 C52.3888423,104.702675 52.1349383,104.274449 51.9530342,103.764107 C51.77113,103.253764 51.6801794,102.667638 51.6801794,102.005709 C51.6801794,101.470102 51.7622876,100.969874 51.9265066,100.505008 C52.0907256,100.040141 52.3269447,99.6371794 52.6351712,99.2961092 C52.9433976,98.9550389 53.3198324,98.6872397 53.7644869,98.4927034 C54.2091413,98.298167 54.7093701,98.2009003 55.2651883,98.2009003 Z M55.2955055,99.1937886 C54.6436824,99.1937886 54.1308216,99.382006 53.7569076,99.7584465 C53.3829935,100.134887 53.150564,100.65659 53.059612,101.323572 L57.2585442,101.323572 C57.2585442,101.010293 57.214332,100.723545 57.1259064,100.463321 C57.0374808,100.203097 56.908634,99.9782471 56.7393621,99.7887637 C56.5700902,99.5992802 56.364188,99.4527485 56.1216492,99.3491643 C55.8791103,99.24558 55.6037319,99.1937886 55.2955055,99.1937886 Z M59.1215361,98.3221691 L60.1826381,98.3221691 C60.2887488,98.3221691 60.3784363,98.3499596 60.4517032,98.4055414 C60.5249702,98.4611232 60.5742351,98.5268098 60.5994996,98.6026032 L62.0698838,103.544307 C62.1103069,103.721158 62.148203,103.894217 62.1835733,104.063489 C62.2189435,104.232761 62.2492604,104.400767 62.2745249,104.567512 C62.314948,104.400767 62.3604234,104.232761 62.4109523,104.063489 C62.4614812,103.894217 62.5145358,103.721158 62.5701176,103.544307 L64.1920878,98.572286 C64.2173522,98.4964926 64.2615644,98.4333324 64.3247255,98.3828035 C64.3878867,98.3322746 64.4649421,98.3070105 64.5558942,98.3070105 L65.1470796,98.3070105 C65.2481374,98.3070105 65.3315089,98.3322746 65.3971965,98.3828035 C65.4628841,98.4333324 65.5083594,98.4964926 65.5336239,98.572286 L67.1176976,103.544307 C67.1682265,103.721158 67.2162283,103.89548 67.2617043,104.067279 C67.3071803,104.239077 67.3501293,104.408346 67.3905524,104.575092 C67.4208697,104.408346 67.4549763,104.24034 67.4928729,104.071068 C67.5307696,103.901796 67.5724554,103.726211 67.6179314,103.544307 L69.1186328,98.6026032 C69.1438972,98.5217569 69.191899,98.4548071 69.2626395,98.4017518 C69.33338,98.3486964 69.4167514,98.3221691 69.5127564,98.3221691 L70.5283826,98.3221691 L68.0423722,106 L66.9736909,106 C66.8423157,106 66.751365,105.914102 66.7008361,105.742304 L65.0030729,100.535325 C64.9626498,100.419108 64.9298064,100.30163 64.904542,100.182887 C64.8792775,100.064144 64.8540134,99.9466663 64.828749,99.8304498 C64.8034845,99.9466663 64.7769572,100.065407 64.7491663,100.186677 C64.7213754,100.307946 64.6897953,100.426687 64.6544251,100.542904 L62.9263447,105.742304 C62.8808687,105.914102 62.7798123,106 62.6231727,106 L61.6075465,106 L59.1215361,98.3221691 Z M83.0584814,103.756527 C83.1393276,103.756527 83.210067,103.789371 83.2707018,103.855058 L83.8543079,104.48414 C83.4096534,104.999535 82.8702652,105.401234 82.2361273,105.689249 C81.6019894,105.977264 80.8352245,106.121269 79.9358098,106.121269 C79.1576644,106.121269 78.4502701,105.986106 77.8136058,105.715776 C77.1769414,105.445447 76.6337636,105.066485 76.1840563,104.578881 C75.7343489,104.091277 75.3857046,103.506414 75.1381129,102.824273 C74.8905211,102.142133 74.7667272,101.39179 74.7667272,100.573221 C74.7667272,99.7546527 74.895574,99.0043095 75.1532715,98.3221691 C75.4109689,97.6400287 75.7735085,97.053902 76.240901,96.5637715 C76.7082935,96.073641 77.2678929,95.6934166 77.919716,95.4230869 C78.571539,95.1527571 79.2915653,95.0175943 80.0798165,95.0175943 C80.8529089,95.0175943 81.5350391,95.1413883 82.1262275,95.38898 C82.7174158,95.6365717 83.2378559,95.972584 83.6875633,96.3970269 L83.2024881,97.0715846 C83.1721707,97.1221135 83.1330114,97.1637993 83.0850089,97.1966431 C83.0370064,97.2294868 82.972583,97.2459085 82.8917368,97.2459085 C82.8007847,97.2459085 82.6896227,97.1966435 82.5582476,97.0981122 C82.4268724,96.9995808 82.2550766,96.889682 82.0428552,96.7684126 C81.8306337,96.6471432 81.5653608,96.5372444 81.2470287,96.4387131 C80.9286965,96.3401817 80.5371032,96.2909167 80.0722372,96.2909167 C79.5113661,96.2909167 78.9985053,96.3881834 78.5336393,96.5827198 C78.0687732,96.7772561 77.6683375,97.0589506 77.3323202,97.4278117 C76.9963029,97.7966728 76.7348197,98.2463734 76.5478627,98.7769271 C76.3609056,99.3074808 76.2674286,99.9062395 76.2674286,100.573221 C76.2674286,101.250309 76.3646953,101.85412 76.5592316,102.384674 C76.7537679,102.915228 77.0190408,103.363665 77.3550581,103.73 C77.6910754,104.096334 78.0877215,104.375502 78.5450082,104.567512 C79.0022949,104.759522 79.4962077,104.855526 80.0267614,104.855526 C80.3501464,104.855526 80.6419466,104.836578 80.9021705,104.798681 C81.1623944,104.760784 81.4024032,104.701414 81.622204,104.620567 C81.8420048,104.539721 82.0466439,104.437402 82.2361273,104.313606 C82.4256107,104.18981 82.6138281,104.042015 82.8007852,103.870217 C82.8866843,103.794423 82.9725822,103.756527 83.0584814,103.756527 Z M86.635911,94.8356911 L86.635911,106 L85.2867956,106 L85.2867956,94.8356911 L86.635911,94.8356911 Z M92.0551105,98.2009003 C92.6159815,98.2009003 93.1212631,98.2943774 93.5709705,98.4813344 C94.0206778,98.6682914 94.4046919,98.9335642 94.7230241,99.2771609 C95.0413562,99.6207576 95.2851546,100.036352 95.4544265,100.523956 C95.6236984,101.01156 95.7083331,101.556001 95.7083331,102.157295 C95.7083331,102.763642 95.6236984,103.309346 95.4544265,103.794424 C95.2851546,104.279501 95.0413562,104.693832 94.7230241,105.037429 C94.4046919,105.381026 94.0206778,105.645035 93.5709705,105.829466 C93.1212631,106.013896 92.6159815,106.10611 92.0551105,106.10611 C91.4891866,106.10611 90.9801153,106.013896 90.5278815,105.829466 C90.0756477,105.645035 89.6903704,105.381026 89.3720383,105.037429 C89.0537061,104.693832 88.8099077,104.279501 88.6406358,103.794424 C88.4713639,103.309346 88.3867293,102.763642 88.3867293,102.157295 C88.3867293,101.556001 88.4713639,101.01156 88.6406358,100.523956 C88.8099077,100.036352 89.0537061,99.6207576 89.3720383,99.2771609 C89.6903704,98.9335642 90.0756477,98.6682914 90.5278815,98.4813344 C90.9801153,98.2943774 91.4891866,98.2009003 92.0551105,98.2009003 Z M92.0551105,105.052588 C92.8130442,105.052588 93.3789596,104.798683 93.7528737,104.290868 C94.1267877,103.783052 94.3137419,103.074395 94.3137419,102.164874 C94.3137419,101.250301 94.1267877,100.537854 93.7528737,100.027512 C93.3789596,99.5171695 92.8130442,99.2620023 92.0551105,99.2620023 C91.6710907,99.2620023 91.3363416,99.3276889 91.0508532,99.4590641 C90.7653648,99.5904393 90.5278824,99.7799199 90.338399,100.027512 C90.1489156,100.275103 90.0074367,100.579535 89.9139582,100.940817 C89.8204797,101.302099 89.7737412,101.710114 89.7737412,102.164874 C89.7737412,103.074395 89.9619586,103.783052 90.338399,104.290868 C90.7148394,104.798683 91.2870709,105.052588 92.0551105,105.052588 Z M102.757082,99.6864431 C102.716659,99.7420249 102.676236,99.7849738 102.635813,99.8152912 C102.59539,99.8456086 102.539809,99.860767 102.469069,99.860767 C102.393275,99.860767 102.309904,99.8291869 102.218952,99.7660258 C102.128,99.7028646 102.015575,99.6333884 101.881673,99.557595 C101.747771,99.4818016 101.583555,99.4123254 101.389018,99.3491643 C101.194482,99.2860031 100.955736,99.254423 100.672775,99.254423 C100.293808,99.254423 99.9603218,99.3213728 99.672307,99.4552745 C99.3842921,99.5891761 99.1430201,99.7824463 98.9484838,100.035091 C98.7539475,100.287735 98.6074158,100.593431 98.5088844,100.952186 C98.410353,101.310942 98.3610881,101.71264 98.3610881,102.157295 C98.3610881,102.622161 98.4141426,103.035229 98.5202534,103.39651 C98.6263641,103.757792 98.7766854,104.060961 98.9712217,104.306026 C99.165758,104.551092 99.400714,104.738046 99.6760966,104.866895 C99.9514792,104.995743 100.260964,105.060167 100.604561,105.060167 C100.932999,105.060167 101.203324,105.021007 101.415546,104.942688 C101.627767,104.864368 101.803353,104.777207 101.942307,104.681202 C102.081262,104.585197 102.197477,104.498036 102.290955,104.419716 C102.384434,104.341396 102.476647,104.302237 102.5676,104.302237 C102.678763,104.302237 102.764661,104.345186 102.825296,104.431085 L103.204261,104.923739 C103.037515,105.130908 102.848035,105.307757 102.635813,105.45429 C102.423592,105.600824 102.194952,105.723355 101.949887,105.821886 C101.704821,105.920418 101.448391,105.99242 101.180588,106.037897 C100.912784,106.083373 100.639932,106.10611 100.362023,106.10611 C99.8819985,106.10611 99.4360875,106.017686 99.0242768,105.840835 C98.6124661,105.663983 98.2549794,105.407553 97.9518059,105.071536 C97.6486323,104.735518 97.41115,104.322451 97.2393517,103.83232 C97.0675533,103.34219 96.9816555,102.783853 96.9816555,102.157295 C96.9816555,101.586318 97.0612373,101.058299 97.2204034,100.573221 C97.3795695,100.088144 97.611999,99.670023 97.917699,99.3188471 C98.223399,98.9676711 98.5998338,98.6935558 99.0470147,98.496493 C99.4941956,98.2994302 100.00832,98.2009003 100.589402,98.2009003 C101.130062,98.2009003 101.60629,98.2880614 102.0181,98.4623862 C102.429911,98.6367109 102.794977,98.8830357 103.113309,99.2013679 L102.757082,99.6864431 Z M106.008602,94.8356911 L106.008602,101.406944 L106.35725,101.406944 C106.458307,101.406944 106.542942,101.393049 106.611156,101.365258 C106.67937,101.337467 106.751373,101.280623 106.827166,101.194724 L109.252542,98.5950239 C109.323283,98.5091247 109.397812,98.4421749 109.476132,98.3941725 C109.554451,98.34617 109.659297,98.3221691 109.790672,98.3221691 L111.01094,98.3221691 L108.183861,101.331151 C108.047433,101.50295 107.900901,101.636849 107.744261,101.732854 C107.835214,101.793489 107.917322,101.862965 107.990589,101.941285 C108.063856,102.019605 108.133332,102.109292 108.199019,102.21035 L111.200422,106 L109.995314,106 C109.879097,106 109.779304,105.981052 109.695931,105.943155 C109.612558,105.905259 109.540556,105.835782 109.479921,105.734725 L106.956014,102.589315 C106.880221,102.483204 106.805692,102.413728 106.732425,102.380884 C106.659158,102.34804 106.546733,102.331619 106.395146,102.331619 L106.008602,102.331619 L106.008602,106 L104.651907,106 L104.651907,94.8356911 L106.008602,94.8356911 Z M123.24393,95.1388631 L123.24393,96.3363925 L118.021792,96.3363925 L118.021792,99.9441393 L122.251042,99.9441393 L122.251042,101.096193 L118.021792,101.096193 L118.021792,104.802471 L123.251509,104.802471 L123.24393,106 L116.551408,106 L116.551408,95.1388631 L123.24393,95.1388631 Z M126.783463,102.066343 L124.198922,98.3221691 L125.494982,98.3221691 C125.606146,98.3221691 125.686991,98.339854 125.73752,98.3752242 C125.788049,98.4105944 125.833524,98.4611226 125.873947,98.5268102 L127.753613,101.406944 C127.799089,101.265463 127.864776,101.123984 127.950675,100.982503 L129.602963,98.5571274 C129.648439,98.4863869 129.697704,98.4295427 129.750759,98.3865932 C129.803814,98.3436436 129.868238,98.3221691 129.944031,98.3221691 L131.187036,98.3221691 L128.602495,101.99055 L131.293147,106 L129.997086,106 C129.885923,106 129.798762,105.970946 129.7356,105.912838 C129.672439,105.85473 129.620648,105.790306 129.580225,105.719566 L127.647503,102.710584 C127.612133,102.857118 127.559078,102.988491 127.488338,103.104707 L125.699623,105.719566 C125.649094,105.790306 125.594776,105.85473 125.536668,105.912838 C125.47856,105.970946 125.398978,106 125.29792,106 L124.092812,106 L126.783463,102.066343 Z M132.536152,108.5997 L132.536152,98.3221691 L133.347137,98.3221691 C133.539147,98.3221691 133.657888,98.4156462 133.703364,98.6026032 L133.817053,99.5121192 C134.145491,99.1129407 134.521926,98.7920869 134.946369,98.5495481 C135.370812,98.3070093 135.855882,98.1857417 136.401595,98.1857417 C136.846249,98.1857417 137.247948,98.2703764 137.606703,98.4396483 C137.965459,98.6089201 138.271154,98.8590345 138.523799,99.189999 C138.776443,99.5209634 138.970977,99.9315047 139.107405,100.421635 C139.243833,100.911766 139.312046,101.475155 139.312046,102.111819 C139.312046,102.677743 139.236254,103.204499 139.084667,103.692103 C138.93308,104.179707 138.714546,104.601617 138.429058,104.957846 C138.143569,105.314075 137.794925,105.594506 137.383114,105.799149 C136.971303,106.003791 136.507708,106.10611 135.992313,106.10611 C135.522394,106.10611 135.119432,106.027792 134.783414,105.871152 C134.447397,105.714512 134.150544,105.492188 133.892846,105.204174 L133.892846,108.5997 L132.536152,108.5997 Z M135.961995,99.2771609 C135.522394,99.2771609 135.137117,99.3782172 134.806152,99.5803329 C134.475188,99.7824486 134.170756,100.067933 133.892846,100.436794 L133.892846,104.150651 C134.135385,104.484142 134.404448,104.719098 134.700042,104.855526 C134.995636,104.991954 135.325332,105.060167 135.689141,105.060167 C136.406651,105.060167 136.957408,104.805 137.341428,104.294658 C137.725448,103.784315 137.917455,103.05671 137.917455,102.111819 C137.917455,101.611583 137.873243,101.182093 137.784817,100.823338 C137.696391,100.464583 137.568808,100.170256 137.402062,99.9403497 C137.235317,99.7104431 137.030678,99.5424369 136.788139,99.4363262 C136.5456,99.3302155 136.270222,99.2771609 135.961995,99.2771609 Z M144.177957,98.2009003 C144.63777,98.2009003 145.063469,98.2779557 145.455069,98.432069 C145.846668,98.5861822 146.185206,98.8085061 146.470695,99.0990474 C146.756183,99.3895886 146.97977,99.7483386 147.141463,100.175308 C147.303155,100.602277 147.384,101.088611 147.384,101.634323 C147.384,101.846545 147.361263,101.988024 147.315787,102.058764 C147.270311,102.129504 147.184413,102.164874 147.058091,102.164874 L141.926904,102.164874 C141.93701,102.649952 142.002697,103.071862 142.123966,103.430617 C142.245236,103.789373 142.411979,104.088752 142.6242,104.328764 C142.836422,104.568777 143.089062,104.748152 143.38213,104.866895 C143.675198,104.985638 144.003631,105.045008 144.367439,105.045008 C144.705983,105.045008 144.997783,105.005849 145.242848,104.927529 C145.487913,104.849209 145.698869,104.764575 145.87572,104.673623 C146.052571,104.58267 146.200366,104.498036 146.319109,104.419716 C146.437852,104.341396 146.540171,104.302237 146.62607,104.302237 C146.737234,104.302237 146.823132,104.345186 146.883767,104.431085 L147.262732,104.923739 C147.095986,105.125855 146.8964,105.30144 146.663967,105.450501 C146.431534,105.599561 146.182683,105.722092 145.917406,105.818097 C145.652129,105.914102 145.378014,105.986104 145.095052,106.034107 C144.81209,106.082109 144.531659,106.10611 144.25375,106.10611 C143.723196,106.10611 143.234336,106.016423 142.787155,105.837045 C142.339974,105.657667 141.953434,105.394921 141.627522,105.048798 C141.301611,104.702675 141.047707,104.274449 140.865802,103.764107 C140.683898,103.253764 140.592948,102.667638 140.592948,102.005709 C140.592948,101.470102 140.675056,100.969874 140.839275,100.505008 C141.003494,100.040141 141.239713,99.6371794 141.547939,99.2961092 C141.856166,98.9550389 142.232601,98.6872397 142.677255,98.4927034 C143.12191,98.298167 143.622138,98.2009003 144.177957,98.2009003 Z M144.208274,99.1937886 C143.556451,99.1937886 143.04359,99.382006 142.669676,99.7584465 C142.295762,100.134887 142.063332,100.65659 141.97238,101.323572 L146.171312,101.323572 C146.171312,101.010293 146.1271,100.723545 146.038675,100.463321 C145.950249,100.203097 145.821402,99.9782471 145.65213,99.7887637 C145.482859,99.5992802 145.276956,99.4527485 145.034417,99.3491643 C144.791879,99.24558 144.5165,99.1937886 144.208274,99.1937886 Z M149.036288,106 L149.036288,98.3221691 L149.809376,98.3221691 C149.95591,98.3221691 150.056967,98.3499596 150.112548,98.4055414 C150.16813,98.4611232 150.206026,98.5571267 150.226238,98.6935548 L150.30961,99.860767 C150.552149,99.3352662 150.851528,98.9247249 151.207757,98.6291308 C151.563986,98.3335366 151.997265,98.1857417 152.507607,98.1857417 C152.6693,98.1857417 152.824674,98.2034266 152.973734,98.2387968 C153.122795,98.274167 153.255431,98.329748 153.371647,98.4055414 L153.273117,99.4135883 C153.242799,99.5399106 153.167007,99.6030708 153.045738,99.6030708 C152.974997,99.6030708 152.871414,99.5879124 152.734986,99.557595 C152.598558,99.5272776 152.444447,99.5121192 152.272649,99.5121192 C152.03011,99.5121192 151.812839,99.5487521 151.620829,99.6220191 C151.428819,99.695286 151.258287,99.8013951 151.109226,99.9403497 C150.960166,100.079304 150.82753,100.249837 150.711313,100.451952 C150.595097,100.654068 150.488987,100.886498 150.392983,101.149248 L150.392983,106 L149.036288,106 Z M156.911181,106.121269 C156.304834,106.121269 155.838711,105.951999 155.5128,105.613456 C155.186888,105.274912 155.023935,104.787315 155.023935,104.150651 L155.023935,99.4514848 L154.09926,99.4514848 C154.018414,99.4514848 153.950201,99.4274839 153.894619,99.3794815 C153.839037,99.331479 153.811247,99.2569499 153.811247,99.1558921 L153.811247,98.6177618 L155.069411,98.4585965 L155.380162,96.0862756 C155.395321,96.0104822 155.429427,95.9485852 155.482483,95.9005828 C155.535538,95.8525803 155.605014,95.8285794 155.690913,95.8285794 L156.37305,95.8285794 L156.37305,98.4737551 L158.593785,98.4737551 L158.593785,99.4514848 L156.37305,99.4514848 L156.37305,104.059699 C156.37305,104.383084 156.451369,104.623093 156.608009,104.779733 C156.764648,104.936372 156.966761,105.014691 157.214353,105.014691 C157.355834,105.014691 157.478364,104.995743 157.581949,104.957846 C157.685533,104.91995 157.77522,104.878264 157.851014,104.832788 C157.926807,104.787312 157.991231,104.745626 158.044286,104.707729 C158.097341,104.669833 158.14408,104.650885 158.184503,104.650885 C158.255243,104.650885 158.318404,104.693834 158.373985,104.779733 L158.768109,105.423973 C158.535676,105.641248 158.255245,105.81178 157.926807,105.935576 C157.598369,106.059372 157.25983,106.121269 156.911181,106.121269 Z" id="is-the-New-Clock-Exp"></path>
            </g>
        </g>
    </g>
</svg>