<?xml version="1.0" encoding="UTF-8"?>
<svg width="71px" height="16px" viewBox="0 0 71 16" version="1.1" xmlns="http://www.w3.org/2000/svg" xmlns:xlink="http://www.w3.org/1999/xlink">
    <!-- Generator: sketchtool 41.2 (35397) - http://www.bohemiancoding.com/sketch -->
    <title>7E248B32-6F2B-4A86-8688-7AD64F8C0BD8</title>
    <desc>Created with sketchtool.</desc>
    <defs></defs>
    <g id="Page-1" stroke="none" stroke-width="1" fill="none" fill-rule="evenodd">
        <g id="site-bulle" transform="translate(-925.000000, -1990.000000)" fill="#FEFEFE">
            <g id="logo_ucaya" transform="translate(924.000000, 1990.000000)">
                <path d="M10.9994667,0.262453333 L15.7408,0.262453333 L15.7408,9.43045333 C15.7408,10.3397867 15.5994667,11.1984533 15.3168,12.0064533 C15.0341333,12.8144533 14.5888,13.52112 13.9834667,14.1264533 C13.3781333,14.72912 12.7434667,15.1557867 12.0794667,15.3984533 C11.1568,15.7424533 10.0474667,15.91312 8.75413333,15.91312 C8.0048,15.91312 7.1888,15.8624533 6.30346667,15.7557867 C5.41813333,15.6517867 4.67946667,15.4437867 4.0848,15.1317867 C3.49013333,14.8197867 2.94613333,14.3797867 2.4528,13.8064533 C1.95946667,13.23312 1.62346667,12.64112 1.43946667,12.03312 C1.14613333,11.0544533 0.999466667,10.18512 0.999466667,9.43045333 L0.999466667,0.262453333 L5.74346667,0.262453333 L5.74346667,9.64912 C5.74346667,10.48912 5.97546667,11.14512 6.43946667,11.6144533 C6.90613333,12.0864533 7.55146667,12.3237867 8.37546667,12.3237867 C9.19413333,12.3237867 9.8368,12.0917867 10.3008,11.62512 C10.7674667,11.16112 10.9994667,10.5024533 10.9994667,9.64912 L10.9994667,0.262453333 Z" id="Fill-1"></path>
                <path d="M26.9813333,9.35285333 L31.1466667,10.61152 C30.8666667,11.7821867 30.4266667,12.7581867 29.824,13.5421867 C29.224,14.3261867 28.4773333,14.91552 27.584,15.31552 C26.6933333,15.7128533 25.5573333,15.9128533 24.1786667,15.9128533 C22.5066667,15.9128533 21.1413333,15.6701867 20.0826667,15.1848533 C19.024,14.69952 18.1093333,13.84352 17.3386667,12.61952 C16.568,11.39552 16.184,9.83018667 16.184,7.92085333 C16.184,5.37418667 16.8613333,3.41685333 18.216,2.05152 C19.568,0.68352 21.4826667,0.000853333333 23.96,0.000853333333 C25.896,0.000853333333 27.4213333,0.392853333 28.528,1.17685333 C29.6373333,1.95818667 30.4613333,3.16352 31,4.78752 L26.8026667,5.72085333 C26.656,5.25152 26.5013333,4.91018667 26.3413333,4.69152 C26.0746667,4.32885333 25.7493333,4.04885333 25.3653333,3.85152 C24.9813333,3.65685333 24.5493333,3.55818667 24.0746667,3.55818667 C22.9973333,3.55818667 22.1733333,3.99285333 21.6,4.85952 C21.1653333,5.50218667 20.9493333,6.51285333 20.9493333,7.88885333 C20.9493333,9.59285333 21.208,10.76352 21.7253333,11.39552 C22.2426667,12.02752 22.9706667,12.3448533 23.9066667,12.3448533 C24.816,12.3448533 25.504,12.0888533 25.968,11.57952 C26.4346667,11.06752 26.7706667,10.3261867 26.9813333,9.35285333" id="Fill-4"></path>
                <path d="M39.7986667,9.78325333 L38.1,4.24992 L36.42,9.78325333 L39.7986667,9.78325333 Z M40.7853333,13.1112533 L35.388,13.1112533 L34.6386667,15.64992 L29.7853333,15.64992 L35.5666667,0.263253333 L40.7506667,0.263253333 L46.532,15.64992 L41.5533333,15.64992 L40.7853333,13.1112533 Z" id="Fill-6"></path>
                <polygon id="Fill-8" points="42.5357333 0.262453333 47.8157333 0.262453333 50.9144 5.45445333 54.0210667 0.262453333 59.2717333 0.262453333 53.2904 9.20645333 53.2904 15.6517867 48.5277333 15.6517867 48.5277333 9.20645333"></polygon>
                <path d="M65.1050667,9.78325333 L63.4064,4.24992 L61.7264,9.78325333 L65.1050667,9.78325333 Z M66.0917333,13.1112533 L60.6944,13.1112533 L59.9450667,15.64992 L55.0917333,15.64992 L60.8730667,0.263253333 L66.0570667,0.263253333 L71.8384,15.64992 L66.8597333,15.64992 L66.0917333,13.1112533 Z" id="Fill-10"></path>
            </g>
        </g>
    </g>
</svg>